<mxfile host="app.diagrams.net" modified="2024-06-06T12:03:49.936Z" agent="Mozilla/5.0 (X11; Linux x86_64; rv:109.0) Gecko/20100101 Firefox/115.0" version="24.2.5" etag="AStwWOMqqrOF6xBBoK3T" type="github">
  <diagram name="Page-1" id="KHrImEqLPcsm_H-5x5vN">
    <mxGraphModel>
      <root>
        <mxCell id="0" />
        <mxCell id="1" parent="0" />
      </root>
    </mxGraphModel>
  </diagram>
</mxfile>
